<svg xmlns="http://www.w3.org/2000/svg" width="1400" height="900" viewBox="0 0 1400 900" role="img" aria-label="Diverse students studying together at a table">
  <defs>
    <linearGradient id="bgStudy" x1="0%" y1="0%" x2="100%" y2="100%">
      <stop offset="0%" stop-color="#eef2ff" />
      <stop offset="100%" stop-color="#ecfeff" />
    </linearGradient>
  </defs>

  <rect width="1400" height="900" fill="url(#bgStudy)" />
  <rect x="80" y="90" width="1240" height="720" rx="30" fill="#ffffff" stroke="#d8e3f0" stroke-width="6" />
  <ellipse cx="700" cy="580" rx="520" ry="170" fill="#e8effc" />
  <rect x="300" y="510" width="800" height="170" rx="26" fill="#cbd9f1" />
  <rect x="380" y="560" width="180" height="18" rx="9" fill="#f8fafc" />
  <rect x="620" y="560" width="210" height="18" rx="9" fill="#f8fafc" />
  <rect x="890" y="560" width="140" height="18" rx="9" fill="#f8fafc" />

  <g transform="translate(300,250)">
    <ellipse cx="120" cy="120" rx="68" ry="74" fill="#f1c49b" />
    <ellipse cx="120" cy="90" rx="76" ry="62" fill="#2b1d17" />
    <rect x="38" y="184" width="164" height="170" rx="40" fill="#2563eb" />
    <rect x="16" y="228" width="58" height="126" rx="24" fill="#f1c49b" />
    <rect x="166" y="228" width="58" height="126" rx="24" fill="#f1c49b" />
  </g>

  <g transform="translate(540,210)">
    <ellipse cx="120" cy="120" rx="68" ry="74" fill="#6e4633" />
    <ellipse cx="120" cy="92" rx="74" ry="60" fill="#1f2937" />
    <rect x="38" y="184" width="164" height="170" rx="40" fill="#059669" />
    <rect x="16" y="228" width="58" height="126" rx="24" fill="#6e4633" />
    <rect x="166" y="228" width="58" height="126" rx="24" fill="#6e4633" />
    <rect x="86" y="242" width="68" height="72" rx="10" fill="#fef08a" />
  </g>

  <g transform="translate(780,250)">
    <ellipse cx="120" cy="120" rx="68" ry="74" fill="#f3d3bc" />
    <ellipse cx="120" cy="92" rx="72" ry="56" fill="#a16207" />
    <rect x="38" y="184" width="164" height="170" rx="40" fill="#9333ea" />
    <rect x="16" y="228" width="58" height="126" rx="24" fill="#f3d3bc" />
    <rect x="166" y="228" width="58" height="126" rx="24" fill="#f3d3bc" />
  </g>

  <text x="122" y="810" font-family="Space Grotesk, Arial, sans-serif" font-size="32" fill="#334155">
    Collaborative study group with students of different races learning together.
  </text>
</svg>
