<svg xmlns="http://www.w3.org/2000/svg" width="1400" height="900" viewBox="0 0 1400 900" role="img" aria-label="African American teacher leading a diverse classroom">
  <defs>
    <linearGradient id="bgClass" x1="0%" y1="0%" x2="100%" y2="100%">
      <stop offset="0%" stop-color="#eef5ff" />
      <stop offset="100%" stop-color="#fef4eb" />
    </linearGradient>
    <linearGradient id="board" x1="0%" y1="0%" x2="100%" y2="0%">
      <stop offset="0%" stop-color="#0f766e" />
      <stop offset="100%" stop-color="#1d4ed8" />
    </linearGradient>
  </defs>

  <rect width="1400" height="900" fill="url(#bgClass)" />
  <rect x="80" y="80" width="1240" height="530" rx="26" fill="#ffffff" stroke="#d8e3f0" stroke-width="6" />
  <rect x="170" y="150" width="760" height="300" rx="20" fill="url(#board)" />
  <text x="220" y="235" font-family="Space Grotesk, Arial, sans-serif" font-size="42" fill="#dbeafe">Today's Study Focus</text>
  <text x="220" y="300" font-family="IBM Plex Mono, monospace" font-size="34" fill="#ecfeff">1. Core Concepts</text>
  <text x="220" y="352" font-family="IBM Plex Mono, monospace" font-size="34" fill="#ecfeff">2. Practice Problems</text>
  <text x="220" y="404" font-family="IBM Plex Mono, monospace" font-size="34" fill="#ecfeff">3. Quick Review</text>

  <g transform="translate(1010,165)">
    <rect x="0" y="290" width="220" height="170" rx="14" fill="#e8edf7" />
    <ellipse cx="110" cy="90" rx="48" ry="52" fill="#6b3f2a" />
    <rect x="60" y="144" width="100" height="132" rx="24" fill="#1e3a8a" />
    <rect x="34" y="164" width="50" height="132" rx="20" fill="#6b3f2a" />
    <rect x="136" y="164" width="50" height="132" rx="20" fill="#6b3f2a" />
    <ellipse cx="110" cy="68" rx="52" ry="42" fill="#2b1d17" />
    <circle cx="90" cy="92" r="5" fill="#111827" />
    <circle cx="128" cy="92" r="5" fill="#111827" />
    <path d="M88 117 Q110 133 132 117" stroke="#7f1d1d" stroke-width="5" fill="none" stroke-linecap="round" />
    <rect x="-58" y="190" width="56" height="12" rx="6" fill="#1e3a8a" />
    <circle cx="-68" cy="196" r="11" fill="#6b3f2a" />
    <rect x="-112" y="126" width="78" height="96" rx="10" fill="#fde68a" />
  </g>

  <g transform="translate(140,560)">
    <g transform="translate(0,0)">
      <rect x="0" y="120" width="250" height="88" rx="12" fill="#d9e6f7" />
      <ellipse cx="62" cy="58" rx="34" ry="36" fill="#f2c29a" />
      <ellipse cx="180" cy="58" rx="34" ry="36" fill="#6f4a38" />
      <rect x="24" y="92" width="76" height="72" rx="22" fill="#2563eb" />
      <rect x="142" y="92" width="76" height="72" rx="22" fill="#047857" />
      <rect x="98" y="96" width="56" height="44" rx="8" fill="#f8fafc" />
    </g>
    <g transform="translate(300,0)">
      <rect x="0" y="120" width="250" height="88" rx="12" fill="#d9e6f7" />
      <ellipse cx="62" cy="58" rx="34" ry="36" fill="#f5d2b6" />
      <ellipse cx="180" cy="58" rx="34" ry="36" fill="#c98f67" />
      <rect x="24" y="92" width="76" height="72" rx="22" fill="#7c3aed" />
      <rect x="142" y="92" width="76" height="72" rx="22" fill="#ea580c" />
      <rect x="98" y="96" width="56" height="44" rx="8" fill="#f8fafc" />
    </g>
    <g transform="translate(600,0)">
      <rect x="0" y="120" width="250" height="88" rx="12" fill="#d9e6f7" />
      <ellipse cx="62" cy="58" rx="34" ry="36" fill="#5e3b2c" />
      <ellipse cx="180" cy="58" rx="34" ry="36" fill="#edc4a5" />
      <rect x="24" y="92" width="76" height="72" rx="22" fill="#1d4ed8" />
      <rect x="142" y="92" width="76" height="72" rx="22" fill="#0f766e" />
      <rect x="98" y="96" width="56" height="44" rx="8" fill="#f8fafc" />
    </g>
  </g>

  <text x="88" y="845" font-family="Space Grotesk, Arial, sans-serif" font-size="30" fill="#334155">
    Inclusive classroom: African American teacher with students from diverse racial backgrounds.
  </text>
</svg>
